<svg width="752" height="56" viewBox="0 0 752 56" fill="none" xmlns="http://www.w3.org/2000/svg">
<rect width="752" height="56" rx="8" fill="white" fill-opacity="0.16"/>
<path opacity="0.64" d="M15.4091 34H19.6136C22.3636 34 23.5 32.6591 23.5 30.9091C23.5 29.0682 22.2273 28.0682 21.1591 28V27.8864C22.1591 27.6136 23.0455 26.9545 23.0455 25.4545C23.0455 23.75 21.9091 22.3636 19.4773 22.3636H15.4091V34ZM16.8182 32.75V28.7045H19.6818C21.2045 28.7045 22.1591 29.7273 22.1591 30.9091C22.1591 31.9318 21.4545 32.75 19.6136 32.75H16.8182ZM16.8182 27.4773V23.6136H19.4773C21.0227 23.6136 21.7045 24.4318 21.7045 25.4545C21.7045 26.6818 20.7045 27.4773 19.4318 27.4773H16.8182ZM31.1335 30.4318C31.1335 32.0682 29.8835 32.8182 28.8835 32.8182C27.7699 32.8182 26.9744 32 26.9744 30.7273V25.2727H25.6335V30.8182C25.6335 33.0455 26.8153 34.1136 28.4517 34.1136C29.7699 34.1136 30.6335 33.4091 31.0426 32.5227H31.1335V34H32.4744V25.2727H31.1335V30.4318ZM41.1122 27.2273C40.6918 25.9886 39.7486 25.1591 38.0213 25.1591C36.1804 25.1591 34.8168 26.2045 34.8168 27.6818C34.8168 28.8864 35.5327 29.6932 37.1349 30.0682L38.5895 30.4091C39.4702 30.6136 39.8849 31.0341 39.8849 31.6364C39.8849 32.3864 39.0895 33 37.8395 33C36.7429 33 36.0554 32.5284 35.8168 31.5909L34.544 31.9091C34.8565 33.392 36.0781 34.1818 37.8622 34.1818C39.8906 34.1818 41.2713 33.0739 41.2713 31.5682C41.2713 30.3523 40.5099 29.5852 38.9531 29.2045L37.6577 28.8864C36.6236 28.6307 36.1577 28.2841 36.1577 27.6136C36.1577 26.8636 36.9531 26.3182 38.0213 26.3182C39.1918 26.3182 39.6747 26.9659 39.9077 27.5682L41.1122 27.2273ZM50.5852 37.2727V25.2727H49.2898V26.6591H49.1307C48.8352 26.2045 48.3125 25.1591 46.608 25.1591C44.4034 25.1591 42.8807 26.9091 42.8807 29.6591C42.8807 32.4318 44.4034 34.1818 46.5852 34.1818C48.267 34.1818 48.8352 33.1364 49.1307 32.6591H49.2443V37.2727H50.5852ZM49.267 29.6364C49.267 31.6136 48.3807 32.9773 46.767 32.9773C45.0852 32.9773 44.2216 31.5 44.2216 29.6364C44.2216 27.7955 45.0625 26.3636 46.767 26.3636C48.4034 26.3636 49.267 27.6818 49.267 29.6364ZM58.5398 30.4318C58.5398 32.0682 57.2898 32.8182 56.2898 32.8182C55.1761 32.8182 54.3807 32 54.3807 30.7273V25.2727H53.0398V30.8182C53.0398 33.0455 54.2216 34.1136 55.858 34.1136C57.1761 34.1136 58.0398 33.4091 58.4489 32.5227H58.5398V34H59.8807V25.2727H58.5398V30.4318ZM65.9957 34.1818C67.7685 34.1818 69.0639 33.2955 69.473 31.9773L68.1776 31.6136C67.8366 32.5227 67.0469 32.9773 65.9957 32.9773C64.4219 32.9773 63.3366 31.9602 63.2741 30.0909H69.6094V29.5227C69.6094 26.2727 67.6776 25.1591 65.8594 25.1591C63.4957 25.1591 61.9276 27.0227 61.9276 29.7045C61.9276 32.3864 63.473 34.1818 65.9957 34.1818ZM63.2741 28.9318C63.3651 27.5739 64.3253 26.3636 65.8594 26.3636C67.3139 26.3636 68.2457 27.4545 68.2457 28.9318H63.2741ZM76.1491 37.2727H77.4901V32.6591H77.6037C77.8991 33.1364 78.4673 34.1818 80.1491 34.1818C82.331 34.1818 83.8537 32.4318 83.8537 29.6591C83.8537 26.9091 82.331 25.1591 80.1264 25.1591C78.4219 25.1591 77.8991 26.2045 77.6037 26.6591H77.4446V25.2727H76.1491V37.2727ZM77.4673 29.6364C77.4673 27.6818 78.331 26.3636 79.9673 26.3636C81.6719 26.3636 82.5128 27.7955 82.5128 29.6364C82.5128 31.5 81.6491 32.9773 79.9673 32.9773C78.3537 32.9773 77.4673 31.6136 77.4673 29.6364ZM89.4446 34.1818C91.8082 34.1818 93.3991 32.3864 93.3991 29.6818C93.3991 26.9545 91.8082 25.1591 89.4446 25.1591C87.081 25.1591 85.4901 26.9545 85.4901 29.6818C85.4901 32.3864 87.081 34.1818 89.4446 34.1818ZM89.4446 32.9773C87.6491 32.9773 86.831 31.4318 86.831 29.6818C86.831 27.9318 87.6491 26.3636 89.4446 26.3636C91.2401 26.3636 92.0582 27.9318 92.0582 29.6818C92.0582 31.4318 91.2401 32.9773 89.4446 32.9773ZM95.446 34H96.7869V28.4773C96.7869 27.2955 97.7188 26.4318 98.9915 26.4318C99.3494 26.4318 99.7188 26.5 99.8097 26.5227V25.1591C99.6562 25.1477 99.304 25.1364 99.1051 25.1364C98.0597 25.1364 97.1506 25.7273 96.8324 26.5909H96.7415V25.2727H95.446V34ZM108.467 34.2045C109.99 34.2045 110.786 33.3864 111.058 32.8182H111.126V34H112.467V28.25C112.467 25.4773 110.354 25.1591 109.24 25.1591C107.922 25.1591 106.422 25.6136 105.74 27.2045L107.013 27.6591C107.308 27.0227 108.007 26.3409 109.286 26.3409C110.518 26.3409 111.126 26.9943 111.126 28.1136V28.1591C111.126 28.8068 110.467 28.75 108.876 28.9545C107.257 29.1648 105.49 29.5227 105.49 31.5227C105.49 33.2273 106.808 34.2045 108.467 34.2045ZM108.672 33C107.604 33 106.831 32.5227 106.831 31.5909C106.831 30.5682 107.763 30.25 108.808 30.1136C109.376 30.0455 110.899 29.8864 111.126 29.6136V30.8409C111.126 31.9318 110.263 33 108.672 33ZM116.256 22.3636H114.915V34H116.256V22.3636ZM122.234 37.4545C124.325 37.4545 126.007 36.5 126.007 34.25V25.2727H124.712V26.6591H124.575C124.28 26.2045 123.734 25.1591 122.03 25.1591C119.825 25.1591 118.303 26.9091 118.303 29.5909C118.303 32.3182 119.893 33.8636 122.007 33.8636C123.712 33.8636 124.257 32.8636 124.553 32.3864H124.666V34.1591C124.666 35.6136 123.643 36.2727 122.234 36.2727C120.649 36.2727 120.092 35.4375 119.734 34.9545L118.666 35.7045C119.212 36.6193 120.286 37.4545 122.234 37.4545ZM122.189 32.6591C120.507 32.6591 119.643 31.3864 119.643 29.5682C119.643 27.7955 120.484 26.3636 122.189 26.3636C123.825 26.3636 124.689 27.6818 124.689 29.5682C124.689 31.5 123.803 32.6591 122.189 32.6591ZM132.007 34.1818C134.371 34.1818 135.962 32.3864 135.962 29.6818C135.962 26.9545 134.371 25.1591 132.007 25.1591C129.643 25.1591 128.053 26.9545 128.053 29.6818C128.053 32.3864 129.643 34.1818 132.007 34.1818ZM132.007 32.9773C130.212 32.9773 129.393 31.4318 129.393 29.6818C129.393 27.9318 130.212 26.3636 132.007 26.3636C133.803 26.3636 134.621 27.9318 134.621 29.6818C134.621 31.4318 133.803 32.9773 132.007 32.9773Z" fill="white"/>
</svg>
